<?xml version="1.0" ?><svg style="enable-background:new 0 0 48 48;" version="1.1" viewBox="0 0 48 48" xml:space="preserve" xmlns="http://www.w3.org/2000/svg" xmlns:xlink="http://www.w3.org/1999/xlink"><g id="Padding__x26__Artboard"/><g id="Icons"><g><path d="M32.20213,33.75656l-0.00073,2.62476l1.65894-1.85864    c0.13165-1.35913,0.14484-3.1524-0.10199-4.18847C33.32005,30.68125,32.16154,31.78256,32.20213,33.75656z" style="fill:#303030;"/><polygon points="24.80205,13.79111 22.84868,13.79111 22.48234,16.13895 25.19884,16.13895   " style="fill:#303030;"/><path d="M13.93754,30.34433c-0.04968,0.13599-0.10144,0.26917-0.12946,0.43713    c-0.00098,0.01221-0.29883,2.70361-0.02197,4.04101l1.69623,1.69641l-0.00092-2.75598    C15.52165,31.80106,14.38457,30.70188,13.93754,30.34433z" style="fill:#303030;"/><path d="M38.25047,24.97482c-0.23425-0.18274-0.81274,0.01233-1.05347,0.13208l-0.69238,4.61975    c0.15714,0.21906,0.32056,0.19739,0.39429,0.17346c0.56934-0.16846,1.17383-2.61328,1.40186-3.53369    C38.4785,25.64768,38.45995,25.14084,38.25047,24.97482z" style="fill:#303030;"/><path d="M33.53825,29.74674c-0.05591-0.08936-0.11487-0.16827-0.18427-0.20746    c0,0-0.87598-0.4458-2.03174-0.4458c-1.29413,0-5.14758-0.44037-7.16736-1.8114l-0.13391,2.8241    c-0.00781,0.16064-0.14062,0.28564-0.31396,0.28564c-0.16553-0.00781-0.29346-0.14844-0.28564-0.31396l0.13721-2.89337    c-1.20111,0.5658-4.53821,2.00549-7.5459,1.94952c-0.08417-0.00787-1.15527-0.12061-1.78839,0.67169    c0.466,0.35248,1.90491,1.62933,1.85675,3.96356l0.00657,3.35498l1.98513,1.98536l2.93848-3.01367    c0.05664-0.05811,0.13379-0.09033,0.21484-0.09033h4.80566c0.07178,0,0.14111,0.02539,0.1958,0.07227l3.53223,3.03906    l1.84186-2.06354c0.00004-0.14082,0.00008-0.28164,0.00012-0.42245c0.00009-0.32315,0.00018-0.64631,0.00027-0.96946    c0.0001-0.35722,0.0002-0.71444,0.0003-1.07166c0-0.52888-0.02682-1.06461,0.0388-1.59063    c0.0515-0.41288,0.15491-0.8191,0.31042-1.20513c0.13087-0.32486,0.29812-0.63484,0.49693-0.92313    c0.15961-0.23145,0.33938-0.4491,0.53672-0.64936c0.13485-0.13684,0.27788-0.26609,0.42977-0.38381    C33.45532,29.80644,33.49633,29.77594,33.53825,29.74674z M22.10448,31.39377l1.72412,0.46289l1.73877-0.34521    c0.1626-0.03271,0.3208,0.07373,0.35303,0.23584c0.03223,0.1626-0.07373,0.3208-0.23584,0.35303l-1.80762,0.35889    c-0.01953,0.00342-0.03906,0.00537-0.05859,0.00537c-0.02637,0-0.05225-0.00342-0.07764-0.01025l-1.7915-0.48144    c-0.16016-0.04297-0.25488-0.20752-0.21191-0.36719C21.77977,31.44553,21.94285,31.34738,22.10448,31.39377z M27.96531,35.56467    c-0.11182,0.12256-0.30127,0.13086-0.42383,0.01758l-0.95703-0.88037H20.9033l-1.00781,0.88525    c-0.05664,0.0498-0.12744,0.07422-0.19775,0.07422c-0.08301,0-0.16602-0.03418-0.22559-0.10205    c-0.10938-0.12402-0.09668-0.31396,0.02783-0.42334l1.09229-0.95947c0.05469-0.04785,0.125-0.07422,0.19775-0.07422h5.91162    c0.0752,0,0.14795,0.02832,0.20312,0.0791l1.04297,0.95947C28.06981,35.25314,28.07762,35.4426,27.96531,35.56467z" style="fill:#303030;"/><path d="M9.74901,24.97531c-0.20947,0.16602-0.22754,0.67334-0.05029,1.3916    c0.22803,0.91992,0.83252,3.36475,1.40186,3.5332c0.0506,0.01581,0.11694-0.01074,0.18951-0.05646l-0.65546-4.81195    C10.3676,24.92295,9.94993,24.81571,9.74901,24.97531z" style="fill:#303030;"/><path d="M23.70897,6.92063c-0.28529-0.00678-8.76121-0.12669-12.2456,7.2267    c-0.90644,1.91294-1.17612,4.06969-0.87135,6.16447l0.0066,0.04535l2.06104,15.09375l0.16583,1.03662l4.33768,4.50107    c0.07489,0.03184,0.14083,0.05987,0.21573,0.0917h13.16943c0.07686-0.03357,0.14408-0.06292,0.22095-0.09649l4.05066-4.37177    l0.21277-1.11279l2.44043-16.23974v0c0.21008-1.40207,0.06856-2.84146-0.47553-4.15062    C35.51114,11.53221,31.9912,6.9514,23.70897,6.92063z M20.83415,11.68271h6.19604l2.77753,7.32532h-4.02893l-0.41235-1.31244    h-3.03668l-0.4884,1.31244h-3.9068L20.83415,11.68271z M29.78758,39.83615c-0.06934,0-0.13916-0.02393-0.1958-0.07227    l-3.67139-3.15869h-4.56787l-3.06201,3.14062c-0.05615,0.05762-0.13281,0.08984-0.21289,0.09033c-0.00049,0-0.00146,0-0.00146,0    c-0.08008,0-0.15625-0.03125-0.2124-0.08789l-4.56348-4.56348c-0.03955-0.03906-0.06738-0.08887-0.08008-0.14307    c-0.33154-1.40771-0.01953-4.22412-0.00635-4.34326c0.32715-1.9668,2.00488-2.27197,2.84131-2.16162    c3.45605,0.04004,7.64795-2.08838,7.68945-2.10986c0.03564-0.01806,0.07428-0.01593,0.1123-0.01935    c0.01495-0.00128,0.02386-0.01483,0.03955-0.01385c0.00433,0.00018,0.00665,0.00476,0.01093,0.00513    c0.06482,0.00525,0.12732,0.02722,0.17706,0.073c1.66797,1.52393,5.94971,2.02197,7.23779,2.02197    c1.31055,0,2.27881,0.49756,2.31934,0.51855c1.24805,0.71289,0.89062,4.84619,0.80615,5.66797    c-0.00635,0.0625-0.03223,0.12207-0.07471,0.16895l-4.36182,4.88672C29.95213,39.80246,29.8701,39.83615,29.78758,39.83615z     M16.52049,10.94016c0.1377-0.09277,0.32471-0.05566,0.41602,0.08252c0.09229,0.1377,0.05566,0.32373-0.08203,0.41602    c-0.03369,0.02246-3.35596,2.2959-3.96728,6.39648c-0.02246,0.14893-0.15039,0.25537-0.29639,0.25537    c-0.01465,0-0.02979-0.00098-0.04492-0.00293c-0.16357-0.02441-0.27686-0.17725-0.25244-0.34131    C12.9453,13.37619,16.37498,11.03781,16.52049,10.94016z M12.06346,20.81272c-0.01709,0-0.03418-0.00098-0.05127-0.00439    c-0.16357-0.02783-0.27295-0.18311-0.24463-0.34619l0.18652-1.08154c0.02783-0.16357,0.18555-0.2793,0.34619-0.24463    c0.16357,0.02783,0.27295,0.18311,0.24463,0.34619l-0.18652,1.08154C12.33348,20.70969,12.20653,20.81272,12.06346,20.81272z     M12.4213,23.10213c0.01041-0.03219,0.02137-0.0642,0.03283-0.09602c0.35747-0.99282,1.00156-2.01614,2.16744-2.04398    c1.34961-0.03223,3.87988,0.03271,5.57959,0.854c0.11938,0.05768,0.23125,0.14751,0.33522,0.22813    c0.21912,0.16991,0.42041,0.36539,0.58737,0.58718c0.20033,0.26609,0.34953,0.57373,0.39992,0.90494    c0.0738,0.48514-0.09714,0.95676-0.32964,1.3744c-0.21084,0.37872-0.46246,0.73667-0.74592,1.06455    c-0.21079,0.24382-0.44751,0.46527-0.7069,0.65672c-0.29077,0.21461-0.60932,0.39058-0.94519,0.52387    c-0.38937,0.15452-0.80012,0.25127-1.21599,0.2987c-0.10809,0.01233-0.21966,0.02754-0.32857,0.02754    c-0.15771,0-0.29053-0.12354-0.29883-0.2832c-0.00928-0.16553,0.11768-0.30713,0.28271-0.31592    c0.8371-0.04596,1.48615-0.2915,1.99554-0.62329c-0.21582,0.03876-0.44458,0.06696-0.70258,0.06958    c-0.04004,0.00098-0.37891,0.00635-0.8584,0.00635c-1.01074,0-2.64745-0.02441-3.43603-0.17138    c-0.50907-0.09488-1.0443-0.48361-1.38012-0.86043c-0.49893-0.55983-0.66816-1.30661-0.48178-2.03189    C12.38665,23.21486,12.40316,23.15822,12.4213,23.10213z M33.74022,26.15744c-0.81641,0.15283-2.4834,0.17822-3.49414,0.17822    c-0.46533,0-0.7915-0.00537-0.83203-0.00635c-0.42755-0.00439-0.78809-0.06812-1.10309-0.16528    c0.55261,0.48132,1.32135,0.86804,2.39801,0.927c0.16504,0.00879,0.29199,0.15039,0.28271,0.31592    c-0.0083,0.15967-0.14111,0.2832-0.31592,0.28271c-0.53882-0.02941-1.07463-0.13701-1.57463-0.34241    c-0.41623-0.17098-0.8036-0.40868-1.14461-0.70225c-0.29602-0.25484-0.55626-0.54992-0.77814-0.87114    c-0.1846-0.26725-0.34308-0.55244-0.47521-0.84909c-0.09203-0.20662-0.17189-0.41906-0.23583-0.63608    c-0.16912-0.57407-0.0014-1.17453,0.34659-1.64505c0.22188-0.30001,0.50662-0.55801,0.8193-0.76102    c0.03047-0.01978,0.06121-0.03928,0.09281-0.05722c1.72656-0.83545,4.26708-0.89648,5.62548-0.8623    c0.58776,0.01479,1.14931,0.30722,1.49423,0.78403c0.37014,0.51167,0.69962,1.19878,0.7738,1.83246    C35.76187,24.7951,34.86959,25.82702,33.74022,26.15744z" style="fill:#303030;"/><path d="M10.0283,20.58029l-0.08575-0.64423l-3.63934-0.97931    c-0.08643-0.02393-0.17773-0.00732-0.25049,0.04395c-0.07275,0.05078-0.11914,0.13135-0.12646,0.21973    c-0.03003,0.34949,0.06158,0.94495,0.44525,1.50037l1.43158,0.41364l1.23059,0.35455    c0.15918,0.0459,0.25098,0.21191,0.20508,0.37109c-0.0376,0.13135-0.15771,0.21729-0.28809,0.21729    c-0.02734,0-0.05518-0.00391-0.08301-0.01221l-0.91394-0.26331l-0.59454-0.16107C7.33903,21.89609,7.35649,22.2684,7.5659,22.6052    c0.20654,0.33252,0.54346,0.55078,1.00244,0.64795c0.28937,0.16711,0.88904,0.60309,1.09625,1.10297    c0,0,0.34119-0.09503,0.61041-0.04169c0.09473,0.013,0.18451,0.03058,0.26923,0.05334L10.0283,20.58029z" style="fill:#303030;"/><path d="M38.96629,21.48899l1.23004-0.35449l1.45728-0.44873    c0.36346-0.54517,0.44946-1.12329,0.4201-1.46533c-0.00732-0.08838-0.05371-0.16895-0.12646-0.21973    c-0.07324-0.05127-0.16357-0.06836-0.25049-0.04395l-3.72827,1.00323l-0.09698,0.64728l-0.57056,3.80627    c0.12335-0.04163,0.26746-0.07745,0.42365-0.099c0,0,0.34418-0.04846,0.61072,0.04156    c0.2077-0.49817,0.80719-0.93512,1.0968-1.10297c0.4585-0.09766,0.79541-0.31543,1.00195-0.64795    c0.22266-0.35889,0.22998-0.76318,0.20361-1.01758l-0.59155,0.21417l-0.91382,0.26337    c-0.02783,0.0083-0.05566,0.01221-0.08301,0.01221c-0.13037,0-0.25049-0.08594-0.28809-0.21729    C38.71532,21.7009,38.80711,21.53488,38.96629,21.48899z" style="fill:#303030;"/></g></g></svg>