<?xml version="1.0" ?><svg style="enable-background:new 0 0 48 48;" version="1.1" viewBox="0 0 48 48" xml:space="preserve" xmlns="http://www.w3.org/2000/svg" xmlns:xlink="http://www.w3.org/1999/xlink"><g id="Padding__x26__Artboard"/><g id="Icons"><g><path d="M9.08735,19.34674c-0.23682,0.979-1.14844,5.47559,1.3042,8.31348l1.24005,0.13641l0.1889-2.57831    c-0.68286-1.68219-1.28046-3.76282-1.36676-6.02417L9.08735,19.34674z" style="fill:#303030;"/><path d="M13.37934,27.10211c-0.5249-3.52344,0.49072-7.99561,0.54346-8.22461    c0.0332-0.14355,0.16406-0.24414,0.31201-0.23193c2.24561,0.14697,7.20898,2.58887,8.72412,3.35791v-1.7793l-2.70557-3.79541    c-2.80078-0.52832-4.854-1.72119-6.10498-3.54639c-1.01221-1.47754-1.29004-3.0625-1.33301-4.19971    c-0.40862,0.9682-0.74075,1.96815-1.00395,2.98536c-0.22878,0.88419-0.40576,1.78174-0.53375,2.68599    c-0.10013,0.70743-0.1706,1.41924-0.20864,2.13274c-0.05758,1.08003-0.06471,2.17927,0.02824,3.25755    c0.05395,0.62585,0.13331,1.24781,0.25868,1.86368c0.18731,0.92071,0.45062,1.8254,0.77352,2.7075    c0.27732,0.75758,0.59862,1.49903,0.95821,2.22116c0.04844,0.09727,0.09757,0.19418,0.14742,0.29073    C13.26862,26.89232,13.37934,27.03098,13.37934,27.10211z" style="fill:#303030;"/><path d="M17.46314,14.90033c0.46448-0.36176,1.88245-1.36554,3.88251-1.88037L19.71223,7.2464    c-2.11377,0.50482-4.50684,1.51257-5.9234,3.53015c0.18689,0.58563,0.45892,1.1908,0.85858,1.77283    C15.32502,13.53552,16.27265,14.31659,17.46314,14.90033z" style="fill:#303030;"/><path d="M16.46284,22.64801c0.40576,1.09375,0.92676,1.71826,1.55225,1.85938    c0.68506,0.1543,1.37646-0.30078,1.77246-0.63232L16.46284,22.64801z" style="fill:#303030;"/><path d="M29.46968,24.59625c0.62549-0.14111,1.146-0.76611,1.55225-1.85938l-3.32471,1.22656    C28.09321,24.29401,28.78657,24.74762,29.46968,24.59625z" style="fill:#303030;"/><path d="M14.01783,29.30774c-0.00049-0.00067-0.00128-0.00085-0.00128-0.00085    c-0.07098-0.0965-0.86084-1.19519-1.68005-2.91766l-0.35022,4.77686c0.31879,0.51117,2.07959,3.30634,4.04883,5.9292v-5.12939    l-2.01611-2.65381C14.01801,29.31079,14.01881,29.30902,14.01783,29.30774z" style="fill:#303030;"/><path d="M30.2989,15.6684c-0.02319,0.01385-0.04694,0.02222-0.07257,0.0293    c-0.74994,0.31055-1.5719,0.55951-2.48126,0.73108l-2.70557,3.79541v1.7793c1.51514-0.76953,6.47803-3.21094,8.74365-3.3584    c0.13867,0,0.26074,0.09521,0.29248,0.23242c0.05273,0.229,1.06885,4.70264,0.54297,8.22656    c0.00643-0.04309,0.05384-0.10122,0.07434-0.14021c0.02635-0.05013,0.05251-0.10037,0.07848-0.1507    c0.054-0.10466,0.10718-0.20975,0.15953-0.31524c0.11211-0.22592,0.22042-0.45373,0.32483-0.68331    c0.23221-0.5106,0.44518-1.03001,0.63664-1.55726c0.21119-0.58161,0.39621-1.17286,0.55054-1.77212    c0.16445-0.63853,0.29404-1.28626,0.38198-1.9398c0.09717-0.72196,0.12392-1.44744,0.13111-2.175    c0.00652-0.65996,0.00486-1.31964-0.0332-1.97868c-0.0271-0.46902-0.06812-0.93724-0.12209-1.40393    c-0.06534-0.56492-0.14974-1.12765-0.25338-1.68681c-0.11783-0.63572-0.26058-1.26688-0.4296-1.89097    c-0.1847-0.68195-0.40083-1.35551-0.65075-2.01639c-0.09022-0.23857-0.18483-0.47547-0.28397-0.71048    c-0.04297,1.13721-0.3208,2.72168-1.33301,4.19922C33.01826,14.09601,31.82398,15.02338,30.2989,15.6684z" style="fill:#303030;"/><path d="M33.98237,29.30621c-0.00244,0.0033-0.00653,0.00446-0.00903,0.00763l-2.00513,2.65155v5.12354    c1.96716-2.62115,3.72534-5.41235,4.04394-5.92285l-0.35004-4.7746C34.84284,28.11151,34.05286,29.21039,33.98237,29.30621z" style="fill:#303030;"/><path d="M37.54432,19.19415c-0.08282,2.26013-0.68109,4.34357-1.36609,6.02808l0.1886,2.5744    l1.24005-0.13641c2.45605-2.8418,1.54199-7.33496,1.3042-8.31299L37.54432,19.19415z" style="fill:#303030;"/><path d="M24.43989,22.19489v-2.06689c0-0.0625,0.01904-0.12354,0.05566-0.17432l2.83154-3.97217    c0.04541-0.06348,0.11377-0.10693,0.19092-0.12109c0.72546-0.13086,1.39331-0.31097,2.01147-0.53217    c-1.26562-0.9223-2.49103-1.48175-3.6424-1.77631c-0.0257-0.00024-0.05157-0.00378-0.08978-0.02039    c-0.24685-0.06046-0.49625-0.11053-0.74736-0.1497c-0.23989-0.03741-0.48134-0.06486-0.72352-0.08211    c-0.23213-0.01653-0.46491-0.02369-0.69762-0.02145c-0.22352,0.00215-0.44695,0.01296-0.66965,0.03228    c-0.21407,0.01858-0.42746,0.04502-0.63962,0.07908c-0.24773,0.03978-0.49379,0.09099-0.73736,0.15097    c-0.22815,0.05618-0.45419,0.1209-0.6776,0.19369c-0.2102,0.06848-0.41807,0.14409-0.62323,0.22644    c-0.19084,0.0766-0.37934,0.15903-0.56521,0.24702c-0.17012,0.08053-0.33805,0.16572-0.50352,0.25542    c-0.14809,0.08027-0.29422,0.16416-0.43817,0.25163c-0.12477,0.07582-0.24791,0.15435-0.36917,0.23567    c-0.1002,0.0672-0.19912,0.1363-0.2965,0.20753c-0.00852,0.00623-0.01702,0.01247-0.02551,0.01874    c0.72235,0.29187,1.51642,0.52472,2.39716,0.68365c0.07715,0.01416,0.14551,0.05762,0.19092,0.12109l2.83154,3.97217    c0.03662,0.05078,0.05566,0.11182,0.05566,0.17432v2.06689H24.43989z" style="fill:#303030;"/><path d="M25.67359,12.90826l1.62689-5.87366c-1.82196-0.32672-3.23645-0.29797-3.27075-0.29822    c-0.01227-0.00049-0.01892-0.01056-0.0307-0.01215c-0.01135,0.00146-0.01874,0.01178-0.03033,0.01215    c-0.0354,0.0025-1.66052-0.02502-3.66968,0.38104l1.63275,5.77118C23.04487,12.67145,24.30976,12.6239,25.67359,12.90826z" style="fill:#303030;"/><path d="M33.54633,19.27008c-2.64062,0.35107-8.60547,3.45801-8.66748,3.49023    c-0.04022,0.02075-0.08405,0.02747-0.14886,0.03418c0,0-1.46155,0-1.48285-0.00482    c-0.04352-0.00189-0.08734-0.00861-0.12756-0.02936c-0.06201-0.03223-6.02783-3.13916-8.66748-3.49023    c-0.23344,1.12943-1.08707,5.71199-0.27253,8.75094c0.15144,0.56502,0.43579,1.08414,0.78963,1.54995    c0.14109,0.18573,0.28218,0.37147,0.42326,0.5572c0.11481,0.11481,0.20603,0.27123,0.30438,0.40069    c0.10653,0.14024,0.21306,0.28048,0.3196,0.42072c0.16434,0.21634,0.34216,0.42388,0.48105,0.65827    c0.07473,0.12611,0.12152,0.23525,0.1352,0.38167c0.01425,0.15258,0.00187,0.30604,0.00204,0.45891    c0.00034,0.30488,0,0.60976,0,0.91463c0,0.44874,0,0.89747,0,1.34621c0,0.45932,0,0.91865,0,1.37798    c0,0.37812,0,0.75623,0,1.13435c0,0.20511,0,0.41022,0,0.61534c0,0.01411,0,0.02822,0,0.04232    c1.01129,1.29688,2.04407,2.48676,2.93896,3.25067l3.81982,0.14581v-2.33331c0-0.16553,0.13428-0.2998,0.2998-0.2998    s0.2998,0.13428,0.2998,0.2998v2.32556l4.43262-0.13855c0.89612-0.76514,1.93042-1.95728,2.94287-3.25616    c0-0.16412,0-0.32824,0-0.49236c0-0.40488,0-0.80977,0-1.21466c0-0.51506,0-1.03011,0-1.54517    c0-0.44031-0.00072-0.88062-0.00336-1.32091c-0.00256-0.42654-0.00594-1.29029-0.00594-1.29044    c-0.00095-0.24189,0.14967-0.43472,0.28575-0.6198c0.10051-0.13669,0.20668-0.26882,0.31681-0.41076    c0.09087-0.1199,0.18141-0.24005,0.27214-0.36005c0.19189-0.2538,0.38379-0.50761,0.57568-0.76141    c0.15779-0.2087,0.31559-0.4174,0.4745-0.62758c0.13163-0.1741,0.24638-0.359,0.32495-0.56262    C34.76296,25.67725,33.797,20.48306,33.54633,19.27008z M22.61274,24.39508c0-0.16553,0.13428-0.2998,0.2998-0.2998    s0.2998,0.13428,0.2998,0.2998v2.74219c0,0.16553-0.13428,0.2998-0.2998,0.2998s-0.2998-0.13428-0.2998-0.2998V24.39508z     M15.69526,22.2359c-0.03223-0.10889,0-0.22656,0.08252-0.3042c0.08301-0.07812,0.20166-0.10205,0.30908-0.06201l4.36279,1.61035    c0.09277,0.03418,0.16309,0.1123,0.18701,0.2085s-0.00098,0.19824-0.06689,0.27246    c-0.04736,0.05273-1.06445,1.17725-2.27344,1.17725c-0.13477,0-0.27197-0.01416-0.41113-0.04492    C16.92719,24.87799,16.19038,23.91705,15.69526,22.2359z M25.29926,35.91559h-2.69043c-0.16553,0-0.2998-0.13428-0.2998-0.2998    s0.13428-0.2998,0.2998-0.2998h2.69043c0.16553,0,0.2998,0.13428,0.2998,0.2998S25.46479,35.91559,25.29926,35.91559z     M29.29487,34.60553c-0.05518,0.04395-0.12109,0.06494-0.18652,0.06494c-0.08838,0-0.17578-0.03857-0.23486-0.11328    l-0.6499-0.81885h-8.15527l-1.07178,0.86572c-0.12988,0.10352-0.31885,0.08301-0.42188-0.04492    c-0.104-0.12891-0.08398-0.31787,0.04492-0.42188l1.1543-0.93213c0.05322-0.04297,0.12012-0.06641,0.18848-0.06641h8.40625    c0.09131,0,0.17822,0.0415,0.23486,0.11328l0.73975,0.93213C29.44624,34.31403,29.42475,34.5025,29.29487,34.60553z     M30.51069,30.94977c-0.04102,0.01855-0.0835,0.02783-0.12598,0.02783c-0.11328,0-0.22168-0.06494-0.27246-0.17432    c-0.35449-0.76611-1.3916-1.61621-2.13818-2.15723c-0.02002,0.29053-0.11865,0.56348-0.21631,0.74268    c-0.05518,0.10205-0.16943,0.16553-0.28125,0.15625c-0.01172-0.00146-0.9624-0.04639-2.22803,0.57227    c-0.44434,0.21676-0.93868,0.32091-1.43266,0.2842c-0.36564-0.02717-0.72812-0.1273-1.05417-0.29552    c-0.13872-0.07157-0.2565-0.16551-0.38086-0.25841c-0.09369-0.06998-0.19343-0.1125-0.30325-0.14912    c-0.08031-0.02678-0.16123-0.05176-0.24257-0.07523c-0.22025-0.06355-0.44371-0.11613-0.66913-0.15777    c-0.10146-0.01874-0.20334-0.03523-0.30554-0.04932c-0.39307-0.0542-0.55322-0.25977-0.61865-0.42285    c-0.03516-0.0874-0.04932-0.18018-0.04736-0.2749c-0.74805,0.57178-1.48145,1.20703-1.59912,1.50342    c-0.06055,0.1543-0.23486,0.23242-0.38916,0.16846c-0.1543-0.06104-0.22949-0.23535-0.16846-0.38916    c0.2915-0.7373,2.29541-2.14062,2.69385-2.41455c0.12256-0.08545,0.2876-0.06543,0.38867,0.04199    c0.10156,0.1084,0.1084,0.2749,0.0166,0.39111c-0.21777,0.27637-0.38232,0.64062-0.33838,0.75    c0.00537,0.01318,0.04883,0.03906,0.14404,0.05176c0.41347,0.05707,0.82694,0.14901,1.22323,0.28046    c0.20489,0.06796,0.40111,0.15627,0.57612,0.28247c0.16432,0.11849,0.33514,0.231,0.52633,0.30128    c0.20517,0.07541,0.42296,0.11297,0.64102,0.12261c0.37193,0.01644,0.74179-0.0669,1.07577-0.22998    c1.06396-0.51953,1.9292-0.6167,2.31396-0.63184c0.08496-0.22803,0.1792-0.64551-0.15234-0.86133    c-0.1377-0.08936-0.17773-0.27295-0.08984-0.41162c0.0874-0.13867,0.26953-0.18164,0.41016-0.0957    c0.10352,0.06348,2.54053,1.56885,3.19043,2.97363C30.72651,30.70172,30.66108,30.87994,30.51069,30.94977z M31.7895,22.32477    c-0.49512,1.68115-1.23193,2.64209-2.19043,2.85693c-0.13867,0.03125-0.27588,0.04541-0.41064,0.04541    c-1.20898,0-2.22607-1.125-2.27344-1.17773c-0.06592-0.07422-0.09082-0.17627-0.06689-0.27246s0.09424-0.17432,0.18701-0.2085    l4.36279-1.60986c0.10742-0.04053,0.22607-0.01465,0.30908,0.06201C31.7895,22.09821,31.82173,22.21588,31.7895,22.32477z" style="fill:#303030;"/><path d="M30.18623,15.07043c1.36285-0.59796,2.42511-1.44189,3.1687-2.5274    c0.39783-0.58057,0.66876-1.18304,0.85529-1.76575c-1.50586-2.14648-4.11609-3.15234-6.32013-3.62378l-1.63318,5.89606    C27.50709,13.39319,28.8296,14.02618,30.18623,15.07043z" style="fill:#303030;"/></g></g></svg>